<svg xmlns="http://www.w3.org/2000/svg" version="1.1" xmlns:xlink="http://www.w3.org/1999/xlink" xmlns:svgjs="http://svgjs.dev/svgjs" viewBox="0 0 800 800" opacity="1"><defs><linearGradient x1="50%" y1="0%" x2="50%" y2="100%" id="gggyrate-grad"><stop stop-color="hsl(50, 98%, 60%)" stop-opacity="1" offset="0%"></stop><stop stop-color="hsl(50, 98%, 80%)" stop-opacity="1" offset="100%"></stop></linearGradient></defs><g stroke-width="7.5" stroke="url(#gggyrate-grad)" fill="none"><path d="M365.35900163272436 -99.61630407735288C386.79483253811713 -111.99005779326481 413.2051064267266 -111.99005779326481 434.6409373321194 -99.61283998056786L815.3590303874341 120.19449331611713C836.7948612928267 132.56824703202915 849.9999982371314 155.44167810318436 849.9999982371314 180.1926496317933V619.8073162251634C849.9999982371314 644.5582877537724 836.7948612928267 667.4317188249277 815.3590303874341 679.8089366376244L434.6409373321194 899.6162699343095C413.2051064267266 911.9900236502217 386.79483253811713 911.9900236502217 365.35900163272436 899.6128058375248L-15.359091422590325 679.8054725408397C-36.794922327983045 667.4317188249277 -50.00005927228773 644.5582877537724 -50.00005927228773 619.8073162251634V180.1926496317933C-50.00005927228773 155.44167810318436 -36.794922327983045 132.56824703202915 -15.359091422590325 120.19102921933234L365.35900163272436 -99.61630407735288Z " transform="rotate(50, 400, 400)" opacity="0.05"></path><path d="M366.74464034671234 -79.63166351093844C387.3230380158893 -91.5104670782139 412.6769009489544 -91.5104670782139 433.2552986181314 -79.62833797802483L798.7446679512336 131.3867019867928C819.3230656204105 143.26550555406828 831.999997086943 165.22399938237731 831.999997086943 188.98493204984197V611.0150119794773C831.999997086943 634.7759446469419 819.3230656204105 656.7344384752508 798.7446679512336 668.6165675754398L433.2552986181314 879.6316075402574C412.6769009489544 891.510411107533 387.3230380158893 891.510411107533 366.74464034671234 879.6282820073438L1.2552710136101837 668.6132420425263C-19.323126655566853 656.7344384752508 -32.00005812209935 634.7759446469419 -32.00005812209935 611.0150119794773V188.98493204984197C-32.00005812209935 165.22399938237731 -19.323126655566853 143.26550555406828 1.2552710136101837 131.38337645387935L366.74464034671234 -79.63166351093844Z " transform="rotate(48, 400, 400)" opacity="0.09"></path><path d="M368.1302790607002 -59.647007685734934C387.8512434936615 -71.03086110437394 412.14869547118224 -71.03086110437394 431.86965990414353 -59.643820716692744L782.1303055150329 142.5789259162575C801.8512699479943 153.96277933489648 813.9999959367547 175.00633592035933 813.9999959367547 197.7772297266796V602.2227229925801C813.9999959367547 624.9936167989003 801.8512699479943 646.0371733843632 782.1303055150329 657.4242137720443L431.86965990414353 859.6469604049944C412.14869547118224 871.0308138236335 387.8512434936615 871.0308138236335 368.1302790607002 859.6437734359524L17.869633449810635 657.4210268030022C-1.8513309831506604 646.0371733843632 -14.000056971910965 624.9936167989003 -14.000056971910965 602.2227229925801V197.7772297266796C-14.000056971910965 175.00633592035933 -1.8513309831506604 153.96277933489648 17.869633449810635 142.57573894721543L368.1302790607002 -59.647007685734934Z " transform="rotate(46, 400, 400)" opacity="0.13"></path><path d="M369.5159177746882 -39.662321342953305C388.3794489714337 -50.55122461295582 411.62048999341005 -50.55122461295582 430.48402119015554 -39.65927293778253L765.5159430788326 153.77118036330035C784.3794742755781 164.6600836333028 795.9999947865663 184.78870297591948 795.9999947865663 206.56955792109528V593.430464523261C795.9999947865663 615.2113194684368 784.3794742755781 635.3399388110535 765.5159430788326 646.2318904862267L430.48402119015554 839.6623437873095C411.62048999341005 850.5512470573121 388.3794489714337 850.5512470573121 369.5159177746882 839.6592953821389L34.483995886011144 646.228842081056C15.620464689265532 635.3399388110535 3.999944178277417 615.2113194684368 3.999944178277417 593.430464523261V206.56955792109528C3.999944178277417 184.78870297591948 15.620464689265532 164.6600836333028 34.483995886011144 153.76813195812963L369.5159177746882 -39.662321342953305Z " transform="rotate(44, 400, 400)" opacity="0.17"></path><path d="M370.9015564886761 -19.67768077653892C388.9076544492059 -30.071633897904917 411.09228451563786 -30.071633897904917 429.09838247616767 -19.674770935239508L748.9015806426321 164.96338903397594C766.907678603162 175.35734215534194 777.9999936363779 194.57102425511238 777.9999936363779 215.3618403391439V584.6381602775748C777.9999936363779 605.4289763616063 766.907678603162 624.6426584613766 748.9015806426321 635.039521424042L429.09838247616767 819.6776813932574C411.09228451563786 830.0716345146236 388.9076544492059 830.0716345146236 370.9015564886761 819.6747715519582L51.09835832221165 635.0366115827428C33.092260361681724 624.6426584613766 21.9999453284658 605.4289763616063 21.9999453284658 584.6381602775748V215.3618403391439C21.9999453284658 194.57102425511238 33.092260361681724 175.35734215534194 51.09835832221165 164.96047919267664L370.9015564886761 -19.67768077653892Z " transform="rotate(42, 400, 400)" opacity="0.21"></path><path d="M372.2872562378202 0.30695978987552053C389.43592096213433 -9.592043182854013 410.5641400730219 -9.592043182854013 427.71280479733605 0.30973106730351674L732.287279241588 176.15559770465154C749.4359439659021 186.05460067738113 760.0000535213459 204.35334553430528 760.0000535213459 224.15412275719245V575.8458560318886C760.0000535213459 595.6466332547758 749.4359439659021 613.9453781116999 732.287279241588 623.8471523618574L427.71280479733605 799.6930189992054C410.5641400730219 809.5920219719351 389.43592096213433 809.5920219719351 372.2872562378202 799.6902477217777L67.71278179356835 623.8443810844295C50.564117069254166 613.9453781116999 40.00000751381043 595.6466332547758 40.00000751381043 575.8458560318886V224.15412275719245C40.00000751381043 204.35334553430528 50.564117069254166 186.05460067738113 67.71278179356835 176.15282642722366L372.2872562378202 0.30695978987552053Z " transform="rotate(40, 400, 400)" opacity="0.25"></path><path d="M373.6728949518081 20.291600356289962C389.9641264399065 10.88754753219689 410.0359345952497 10.88754753219689 426.3271660833482 20.29423306984654L715.6729168053874 187.3478063753272C731.9641482934859 196.75185919942027 742.0000523711575 214.13566681349823 742.0000523711575 232.946405175241V567.0535517862023C742.0000523711575 585.8642901479452 731.9641482934859 603.2480977620231 715.6729168053874 612.6547832996728L426.3271660833482 779.7083566051534C410.0359345952497 789.1124094292463 389.9641264399065 789.1124094292463 373.6728949518081 779.7057238915969L84.32714422976886 612.6521505861162C68.03591274167036 603.2480977620231 58.00000866399881 585.8642901479452 58.00000866399881 567.0535517862023V232.946405175241C58.00000866399881 214.13566681349823 68.03591274167036 196.75185919942027 84.32714422976886 187.34517366177067L373.6728949518081 20.291600356289962Z " transform="rotate(38, 400, 400)" opacity="0.29"></path><path d="M375.05853366579595 40.27627144028253C390.4923319176787 31.36716876482592 409.50772911747754 31.36716876482592 424.9415273693603 40.27876558996769L699.0585543691868 198.54004556358097C714.4923526210696 207.44914823903753 724.000051220969 223.9180186102693 724.000051220969 241.7387181108678V558.2612780580944C724.000051220969 576.0819775586928 714.4923526210696 592.5508479299244 699.0585543691868 601.4624447550661L424.9415273693603 759.7237247286795C409.50772911747754 768.632827404136 390.4923319176787 768.632827404136 375.05853366579595 759.7212305789944L100.94150666596937 601.4599506053811C85.50770841408661 592.5508479299244 76.0000098141872 576.0819775586928 76.0000098141872 558.2612780580944V241.7387181108678C76.0000098141872 223.9180186102693 85.50770841408661 207.44914823903753 100.94150666596937 198.5375514138958L375.05853366579595 40.27627144028253Z " transform="rotate(36, 400, 400)" opacity="0.33"></path><path d="M376.4441723797838 60.26091200669691C391.0205373954509 51.84675947987682 408.97952363970535 51.84675947987682 423.5558886553724 60.263267592510715L682.4441919329864 209.73225423425657C697.0205569486535 218.14640676107672 706.0000500707806 233.70033988946227 706.0000500707806 250.53100052891637V549.468973812408C706.0000500707806 566.2996344518621 697.0205569486535 581.8535675802476 682.4441919329864 590.2700756928815L423.5558886553724 739.7390623346273C408.97952363970535 748.1532148614475 391.0205373954509 748.1532148614475 376.4441723797838 739.7367067488136L117.55586910216982 590.2677201070678C102.9795040865028 581.8535675802476 94.00001096437558 566.2996344518621 94.00001096437558 549.468973812408V250.53100052891637C94.00001096437558 233.70033988946227 102.9795040865028 218.14640676107672 117.55586910216982 209.72989864844283L376.4441723797838 60.26091200669691Z " transform="rotate(34, 400, 400)" opacity="0.37"></path><path d="M377.8298110937717 80.24558309068948C391.5487428732231 72.32638071250585 408.45131816193316 72.32638071250585 422.17024994138455 80.24780011263186L665.8298294967859 220.9244934225103C679.5487612762373 228.84369580069392 688.0000489205922 243.4826916862333 688.0000489205922 259.32331346454305V540.6767000842999C688.0000489205922 556.5173218626096 679.5487612762373 571.1563177481489 665.8298294967859 579.077737148275L422.17024994138455 719.7544304581534C408.45131816193316 727.6736328363371 391.5487428732231 727.6736328363371 377.8298110937717 719.752213436211L134.17023153837033 579.0755201263325C120.45129975891899 571.1563177481489 112.00001211456396 556.5173218626096 112.00001211456396 540.6767000842999V259.32331346454305C112.00001211456396 243.4826916862333 120.45129975891899 228.84369580069392 134.17023153837033 220.92227640056797L377.8298110937717 80.24558309068948Z " transform="rotate(32, 400, 400)" opacity="0.41"></path><path d="M379.2154498077597 100.23022365710392C392.0769483509953 92.80597142755676 407.92311268416097 92.80597142755676 420.78461122739657 100.23230211517489L649.2154670605854 232.11670209318595C662.0769656038211 239.5409543227331 670.000047770404 253.26501296542625 670.000047770404 268.1155958825916V531.8843958386137C670.000047770404 546.7349787557791 662.0769656038211 560.4590373984722 649.2154670605854 567.8853680860902L420.78461122739657 699.7697680641013C407.92311268416097 707.1940202936485 392.0769483509953 707.1940202936485 379.2154498077597 699.7676896060304L150.78459397457084 567.8832896280194C137.92309543133518 560.4590373984722 130.00001326475234 546.7349787557791 130.00001326475234 531.8843958386137V268.1155958825916C130.00001326475234 253.26501296542625 137.92309543133518 239.5409543227331 150.78459397457084 232.11462363511498L379.2154498077597 100.23022365710392Z " transform="rotate(30, 400, 400)" opacity="0.45"></path><path d="M380.6010732629585 120.21486422351836C392.6051385699784 113.28556214260766 407.3948919475997 113.28556214260766 419.39895725461963 120.21680411771791L632.601089365596 243.3089107638616C644.6051546726158 250.23821284477225 652.0000313614264 263.0473342446192 652.0000313614264 276.9078783006402V523.0920915929275C652.0000313614264 536.9526356489484 644.6051546726158 549.7617570487955 632.601089365596 556.6929990239057L419.39895725461963 679.7851056700492C407.3948919475997 686.7144077509599 392.6051385699784 686.7144077509599 380.6010732629585 679.7831657758497L167.39894115198223 556.6910591297061C155.3948758449623 549.7617570487955 147.99999915615166 536.9526356489484 147.99999915615166 523.0920915929275V276.9078783006402C147.99999915615166 263.0473342446192 155.3948758449623 250.23821284477225 167.39894115198223 243.30697086966205L380.6010732629585 120.21486422351836Z " transform="rotate(28, 400, 400)" opacity="0.49"></path><path d="M381.9866967181573 140.19953530751087C393.13332878896153 133.7651833752367 406.86667121103847 133.7651833752367 418.0133032818427 140.20133663783906L615.9867116706064 254.50114995211533C627.1333437414105 260.9355018843895 634.000014952449 272.82968604139023 634.000014952449 285.70019123626696V514.2998178648195C634.000014952449 527.1703230596961 627.1333437414105 539.0645072166968 615.9867116706064 545.5006604792991L418.0133032818427 659.8004737935753C406.86667121103847 666.2348257258496 393.13332878896153 666.2348257258496 381.9866967181573 659.7986724632473L184.01328832939367 545.498859148971C172.86665625858944 539.0645072166968 165.99998504755098 527.1703230596961 165.99998504755098 514.2998178648195V285.70019123626696C165.99998504755098 272.82968604139023 172.86665625858944 260.9355018843895 184.01328832939367 254.4993486217872L381.9866967181573 140.19953530751087Z " transform="rotate(26, 400, 400)" opacity="0.53"></path><path d="M383.37233543214523 160.18416061513625C393.6615342667337 154.24475883149853 406.3384657332663 154.24475883149853 416.62766456785477 160.18582338159302L599.3723492344059 265.69334336400186C609.6615480689943 271.63274514763964 616.0000138022606 282.6119920617941 616.0000138022606 294.49245839552646V505.50749836034413C616.0000138022606 517.3879646940763 609.6615480689943 528.367211608231 599.3723492344059 534.3082761583254L416.62766456785477 639.8157961407342C406.3384657332663 645.7551979243719 393.6615342667337 645.7551979243719 383.37233543214523 639.8141333742774L200.62765076559413 534.3066133918686C190.33845193100564 528.367211608231 183.99998619773936 517.3879646940763 183.99998619773936 505.50749836034413V294.49245839552646C183.99998619773936 282.6119920617941 190.33845193100564 271.63274514763964 200.62765076559413 265.69168059754514L383.37233543214523 160.18416061513625Z " transform="rotate(24, 400, 400)" opacity="0.56"></path><path d="M384.75797414613317 180.16884695791788C394.1897397445059 174.72439532291662 405.8102602554941 174.72439532291662 415.24202585386683 180.17037116050324L582.7579867982054 276.8855978110447C592.1897523965781 282.3300494460459 598.0000126520722 292.39435911735427 598.0000126520722 303.2847865899422V496.715239891025C598.0000126520722 507.60566736361295 592.1897523965781 517.6699770349212 582.7579867982054 523.1159528725079L415.24202585386683 619.8311795230493C405.8102602554941 625.2756311580506 394.1897397445059 625.2756311580506 384.75797414613317 619.829655320464L217.24201320179463 523.1144286699225C207.81024760342183 517.6699770349212 201.99998734792774 507.60566736361295 201.99998734792774 496.715239891025V303.2847865899422C201.99998734792774 292.39435911735427 207.81024760342183 282.3300494460459 217.24201320179463 276.88407360845935L384.75797414613317 180.16884695791788Z " transform="rotate(22, 400, 400)" opacity="0.60"></path><path d="M386.14361286012104 200.15348752433232C394.7179452222781 195.20398603796752 405.2820547777219 195.20398603796752 413.85638713987896 200.15487316304626L566.1436243620049 288.0778064817203C574.7179567241619 293.0273079680851 580.0000115018838 302.17668039654717 580.0000115018838 312.07706900799076V487.92293564533884C580.0000115018838 497.82332425678237 574.7179567241619 506.9726966852445 566.1436243620049 511.9235838103232L413.85638713987896 599.8465171289972C405.2820547777219 604.7960186153621 394.7179452222781 604.7960186153621 386.14361286012104 599.8451314902834L233.85637563799514 511.92219817160935C225.28204327583802 506.9726966852445 219.99998849811612 497.82332425678237 219.99998849811612 487.92293564533884V312.07706900799076C219.99998849811612 302.17668039654717 225.28204327583802 293.0273079680851 233.85637563799514 288.07642084300636L386.14361286012104 200.15348752433232Z " transform="rotate(20, 400, 400)" opacity="0.64"></path><path d="M387.5292515741089 220.1381280907467C395.2461507000503 215.68357675301843 404.7538492999497 215.68357675301843 412.4707484258911 220.13937516558934L549.5292619258043 299.27001515239596C557.2461610517457 303.72456649012423 562.0000103516954 311.9590016757401 562.0000103516954 320.8693514260394V479.13063139965266C562.0000103516954 488.0409811499519 557.2461610517457 496.2754163355677 549.5292619258043 500.73121474813854L412.4707484258911 579.8618547349452C404.7538492999497 584.3164060726735 395.2461507000503 584.3164060726735 387.5292515741089 579.8606076601027L250.4707380741956 500.72996767329596C242.7538389482542 496.2754163355677 237.9999896483045 488.0409811499519 237.9999896483045 479.13063139965266V320.8693514260394C237.9999896483045 311.9590016757401 242.7538389482542 303.72456649012423 250.4707380741956 299.2687680775534L387.5292515741089 220.1381280907467Z " transform="rotate(18, 400, 400)" opacity="0.68"></path><path d="M388.9148902880968 240.12279917473927C395.7743561778225 236.16319798564746 404.2256438221775 236.16319798564746 411.0851097119032 240.1239076857105L532.9148994896038 310.4622543406497C539.7743653793295 314.4218555297415 544.000009201507 321.74135347251115 544.000009201507 329.66166436166606V470.3383576715445C544.000009201507 478.25866856069933 539.7743653793295 485.578166503469 532.9148994896038 489.538876203532L411.0851097119032 559.8772228584712C404.2256438221775 563.8368240475631 395.7743561778225 563.8368240475631 388.9148902880968 559.8761143475001L267.0851005103961 489.5377676925608C260.2256346206704 485.578166503469 255.99999079849295 478.25866856069933 255.99999079849295 470.3383576715445V329.66166436166606C255.99999079849295 321.74135347251115 260.2256346206704 314.4218555297415 267.0851005103961 310.4611458296785L388.9148902880968 240.12279917473927Z " transform="rotate(16, 400, 400)" opacity="0.72"></path><path d="M390.3005290020847 260.10742448236465C396.3025616555947 256.6427734419093 403.6974383444053 256.6427734419093 409.6994709979153 260.1083944294644L516.3005370534034 321.65444775253627C522.3025697069133 325.1190987929916 526.0000080513187 331.52365949291504 526.0000080513187 338.4539315209256V461.54603816706924C526.0000080513187 468.4763101950797 522.3025697069133 474.8808708950032 516.3005370534034 478.3464918825583L409.6994709979153 539.8925452056301C403.6974383444053 543.3571962460854 396.3025616555947 543.3571962460854 390.3005290020847 539.8915752585303L283.6994629465966 478.3455219354585C277.6974302930866 474.8808708950032 273.9999919486813 468.4763101950797 273.9999919486813 461.54603816706924V338.4539315209256C273.9999919486813 331.52365949291504 277.6974302930866 325.1190987929916 283.6994629465966 321.6534778054365L390.3005290020847 260.10742448236465Z " transform="rotate(14, 400, 400)" opacity="0.76"></path><path d="M391.68616771607265 280.0920955663572C396.83076713336686 277.1223946745383 403.16923286663314 277.1223946745383 408.31383228392735 280.0929269495856L499.68617461720294 332.84668694079C504.83077403449715 335.8163878326089 508.0000069011303 341.3060112896861 508.0000069011303 347.2462444565523V452.7537644389611C508.0000069011303 458.69399760582724 504.83077403449715 464.18362106290454 499.68617461720294 467.15415333795175L408.31383228392735 519.9079133291561C403.16923286663314 522.877614220975 396.83076713336686 522.877614220975 391.68616771607265 519.9070819459278L300.31382538279706 467.15332195472337C295.16922596550285 464.18362106290454 291.9999930988697 458.69399760582724 291.9999930988697 452.7537644389611V347.2462444565523C291.9999930988697 341.3060112896861 295.16922596550285 335.8163878326089 300.31382538279706 332.8458555575616L391.68616771607265 280.0920955663572Z " transform="rotate(12, 400, 400)" opacity="0.80"></path><path d="M393.0718064300605 300.0767437621662C397.35897261113905 297.60199301898376 402.64102738886095 297.60199301898376 406.9281935699395 300.0774365815231L483.07181218100243 344.0389032408602C487.35897836208096 346.51365398404255 490.0000057509419 351.0883401982736 490.0000057509419 356.0385345039954V443.9614678226694C490.0000057509419 448.9116621283912 487.35897836208096 453.48634834262225 483.07181218100243 455.9617919051616L406.9281935699395 499.9232585644986C402.64102738886095 502.39800930768104 397.35897261113905 502.39800930768104 393.0718064300605 499.9225657451417L316.92818781899757 455.9610990858047C312.64102163791904 453.48634834262225 309.9999942490581 448.9116621283912 309.9999942490581 443.9614678226694V356.0385345039954C309.9999942490581 351.0883401982736 312.64102163791904 346.51365398404255 316.92818781899757 344.0382104215032L393.0718064300605 300.0767437621662Z " transform="rotate(10, 400, 400)" opacity="0.84"></path><path d="M394.4574451440484 320.06139958736964C397.88717808891124 318.08159899282373 402.11282191108876 318.08159899282373 405.5425548559516 320.06195384285525L466.4574497448019 355.23112717032484C469.88718268966477 357.21092776487075 472.0000046007535 360.8706767362556 472.0000046007535 364.830832180833V435.16917883577224C472.0000046007535 439.12933428034967 469.88718268966477 442.7890832517345 466.4574497448019 444.769438101766L405.5425548559516 479.9386114292356C402.11282191108876 481.91841202378157 397.88717808891124 481.91841202378157 394.4574451440484 479.93805717375005L333.542550255198 444.7688838462804C330.11281731033523 442.7890832517345 327.9999953992465 439.12933428034967 327.9999953992465 435.16917883577224V364.830832180833C327.9999953992465 360.8706767362556 330.11281731033523 357.21092776487075 333.542550255198 355.2305729148393L394.4574451440484 320.06139958736964Z " transform="rotate(8, 400, 400)" opacity="0.88"></path><path d="M395.8430838580363 340.04605541257314C398.41538356668343 338.5612049666637 401.58461643331657 338.5612049666637 404.1569161419637 340.04647110418733L449.84308730860147 366.42335109978956C452.4153870172486 367.90820154569894 454.00000345056515 370.6530132742376 454.00000345056515 373.6231298576707V426.37688984887507C454.00000345056515 429.34700643230815 452.4153870172486 432.0918181608468 449.84308730860147 433.57708429837044L404.1569161419637 459.9539642939726C401.58461643331657 461.43881473988205 398.41538356668343 461.43881473988205 395.8430838580363 459.9535486023584L350.15691269139853 433.57666860675624C347.5846129827514 432.0918181608468 345.99999654943485 429.34700643230815 345.99999654943485 426.37688984887507V373.6231298576707C345.99999654943485 370.6530132742376 347.5846129827514 367.90820154569894 350.15691269139853 366.42293540817536L395.8430838580363 340.04605541257314Z " transform="rotate(6, 400, 400)" opacity="0.92"></path><path d="M397.2287225720242 360.0306959789875C398.9435890444556 359.0407956817146 401.0564109555444 359.0407956817146 402.7712774279758 360.03097310673036L433.22872487240096 377.61555977046515C434.9435913448324 378.60546006773814 436.00000230037676 380.43533455343055 436.00000230037676 382.41541227571923V417.5845856031889C436.00000230037676 419.56466332547757 434.9435913448324 421.39453781117 433.22872487240096 422.38471523618574L402.7712774279758 439.96930189992054C401.0564109555444 440.9592021971935 398.9435890444556 440.9592021971935 397.2287225720242 439.96902477217776L366.77127512759904 422.38443810844296C365.0564086551676 421.39453781117 363.99999769962324 419.56466332547757 363.99999769962324 417.5845856031889V382.41541227571923C363.99999769962324 380.43533455343055 365.0564086551676 378.60546006773814 366.77127512759904 377.6152826427224L397.2287225720242 360.0306959789875Z " transform="rotate(4, 400, 400)" opacity="0.96"></path><path d="M398.6143612860121 380.015351804191C399.4717945222278 379.52040165555456 400.5282054777722 379.52040165555456 401.3856387139879 380.01549036806244L416.6143624362005 388.80778369992987C417.4717956724162 389.30273384856633 418.0000011501884 390.2176710914125 418.0000011501884 391.2077099525569V408.7922966162917C418.0000011501884 409.78233547743605 417.4717956724162 410.6972727202823 416.6143624362005 411.1923614327901L401.3856387139879 419.98465476465753C400.5282054777722 420.479604913294 399.4717945222278 420.479604913294 398.6143612860121 419.9845162007861L383.3856375637995 411.19222286891875C382.5282043275838 410.6972727202823 381.9999988498116 409.78233547743605 381.9999988498116 408.7922966162917V391.2077099525569C381.9999988498116 390.2176710914125 382.5282043275838 389.30273384856633 383.3856375637995 388.80764513605845L398.6143612860121 380.015351804191Z " transform="rotate(2, 400, 400)" opacity="1.00"></path></g></svg>